<svg width="40" height="40" viewBox="0 0 40 40" fill="none" xmlns="http://www.w3.org/2000/svg">
<path d="M25.0283 22.6294L24.9153 25.0613C29.0978 25.8856 31.5848 27.5756 31.5848 28.8534C31.5848 30.0901 29.2109 31.8624 24.8023 32.6867C24.1994 32.8103 23.8227 33.4285 23.8979 34.0881C24.011 34.7476 24.576 35.2011 25.179 35.0774C30.605 34.0881 33.8078 31.7798 33.8078 28.8945C33.8081 25.6383 29.814 23.4949 25.0283 22.6294H25.0283Z" fill="white"/>
<path d="M17.6807 29.8016C17.2662 29.3481 16.5502 29.3481 16.0981 29.8016C15.646 30.255 15.6836 31.0382 16.0981 31.5328L17.417 32.9756C11.7272 32.4811 8.22303 30.3787 8.22303 28.8537C8.22303 27.5345 10.9736 25.7211 15.533 24.9379L15.3824 22.506C10.2954 23.3304 6 25.4738 6 28.8126C6 32.6873 11.6521 34.913 17.6055 35.4078L16.0606 37.0979C15.6461 37.5513 15.6461 38.3345 16.0606 38.8291C16.2866 39.0764 16.5505 39.2 16.852 39.2C17.1535 39.2 17.4171 39.0764 17.6434 38.8291L20.9594 35.2017C21.1854 34.9545 21.2984 34.6658 21.2984 34.336C21.2984 34.0062 21.1854 33.7178 20.9594 33.4702L17.6807 29.8016Z" fill="white"/>
<circle cx="20" cy="4" r="3.25" stroke="white" stroke-width="1.5"/>
<path d="M14.5053 17.0583L15.1669 16.7049L14.5053 17.0583ZM16.1214 10.5029L15.6089 9.95538V9.95538L16.1214 10.5029ZM17.1988 18.0668L17.9471 18.0169L17.9004 17.3168H17.1988V18.0668ZM17.7375 26.135H18.4875V26.11L18.4858 26.0851L17.7375 26.135ZM18.2762 27.1435L17.8548 27.764L17.8548 27.764L18.2762 27.1435ZM20 27.2989H20.75V26.554L20.005 26.5489L20 27.2989ZM20 27.3H19.25V28.05H20V27.3ZM20.2155 27.2998L20.217 26.5498L20.214 26.5498L20.2155 27.2998ZM20.4309 27.3V28.05H21.1809V27.3H20.4309ZM20.4309 27.2989L20.4259 26.5489L19.6809 26.554V27.2989H20.4309ZM22.1548 27.1435L22.5762 27.764L22.5762 27.764L22.1548 27.1435ZM22.6935 26.135L21.9451 26.0851L21.9435 26.11V26.135H22.6935ZM23.2321 18.0668V17.3168H22.5305L22.4838 18.0169L23.2321 18.0668ZM25.9256 17.0583L25.264 16.7049L25.9256 17.0583ZM24.3095 10.5029L23.797 11.0504L23.797 11.0504L24.3095 10.5029ZM22.1548 9.36452L22.2483 8.62037H22.2483L22.1548 9.36452ZM20.3906 9.30768L20.4062 10.0575L20.3906 9.30768ZM20.2155 9.31114L20.2023 10.061L20.2155 10.0613L20.2287 10.061L20.2155 9.31114ZM20.0404 9.30768L20.0248 10.0575L20.0404 9.30768ZM18.2762 9.36452L18.1826 8.62037L18.2762 9.36452ZM15.1669 16.7049C15.2009 16.7686 15.2014 16.8034 15.1951 16.766C15.1904 16.7384 15.1849 16.688 15.1824 16.6103C15.1773 16.4551 15.1854 16.2404 15.2096 15.9746C15.2576 15.4456 15.3637 14.7718 15.5144 14.0791C15.6654 13.3859 15.8566 12.6943 16.0691 12.1254C16.2951 11.5204 16.503 11.173 16.634 11.0504L15.6089 9.95538C15.2011 10.3371 14.8951 10.9816 14.6639 11.6005C14.4192 12.2557 14.2098 13.0203 14.0488 13.7601C13.8876 14.5005 13.7704 15.2366 13.7157 15.8389C13.6885 16.1387 13.6754 16.4201 13.6832 16.6594C13.6871 16.7789 13.6966 16.9005 13.716 17.0153C13.7337 17.1204 13.7672 17.2682 13.8438 17.4116L15.1669 16.7049ZM17.1988 17.3168C16.6356 17.3168 16.2018 17.312 15.8438 17.2162C15.5307 17.1325 15.3195 16.9907 15.1669 16.7049L13.8438 17.4116C14.2299 18.1344 14.8267 18.4969 15.4563 18.6653C16.041 18.8217 16.6845 18.8168 17.1988 18.8168V17.3168ZM17.1988 17.3168H17.1988V18.8168H17.1988V17.3168ZM18.4858 26.0851L17.9471 18.0169L16.4505 18.1168L16.9891 26.185L18.4858 26.0851ZM18.6976 26.5231C18.4709 26.3691 18.476 26.3337 18.4938 26.3695C18.5032 26.3885 18.5003 26.3943 18.496 26.3615C18.4907 26.3207 18.4875 26.2566 18.4875 26.135H16.9875C16.9875 26.377 16.9895 26.7125 17.15 27.036C17.3137 27.3662 17.5882 27.5829 17.8548 27.764L18.6976 26.5231ZM20.005 26.5489C19.6707 26.5467 19.3057 26.5396 19.007 26.5189C18.8564 26.5084 18.7382 26.4955 18.6561 26.4815C18.615 26.4744 18.5952 26.4691 18.5913 26.468C18.5777 26.4639 18.6282 26.476 18.6976 26.5231L17.8548 27.764C17.9708 27.8428 18.0892 27.8834 18.1611 27.9049C18.2427 27.9294 18.3262 27.9468 18.4027 27.9599C18.5559 27.9862 18.7305 28.0033 18.9032 28.0153C19.2509 28.0394 19.6545 28.0466 19.995 28.0489L20.005 26.5489ZM19.25 27.2989V27.3H20.75V27.2989H19.25ZM20 28.05C20.0664 28.05 20.1395 28.05 20.217 28.0498L20.214 26.5498C20.1382 26.55 20.0666 26.55 20 26.55V28.05ZM20.4309 26.55C20.3644 26.55 20.2928 26.55 20.217 26.5498L20.214 28.0498C20.2915 28.05 20.3645 28.05 20.4309 28.05V26.55ZM19.6809 27.2989V27.3H21.1809V27.2989H19.6809ZM20.436 28.0489C20.7764 28.0466 21.1801 28.0394 21.5278 28.0153C21.7004 28.0033 21.875 27.9862 22.0282 27.9599C22.1047 27.9468 22.1883 27.9294 22.2699 27.9049C22.3418 27.8834 22.4601 27.8428 22.5762 27.764L21.7333 26.5231C21.8027 26.476 21.8533 26.4639 21.8396 26.468C21.8357 26.4691 21.816 26.4744 21.7749 26.4815C21.6928 26.4955 21.5746 26.5084 21.424 26.5189C21.1252 26.5396 20.7603 26.5467 20.4259 26.5489L20.436 28.0489ZM22.5762 27.764C22.8427 27.5829 23.1172 27.3662 23.281 27.036C23.4414 26.7125 23.4435 26.377 23.4435 26.135H21.9435C21.9435 26.2566 21.9402 26.3207 21.9349 26.3615C21.9306 26.3943 21.9277 26.3885 21.9372 26.3695C21.9549 26.3337 21.9601 26.3691 21.7333 26.5231L22.5762 27.764ZM23.4418 26.185L23.9805 18.1168L22.4838 18.0169L21.9451 26.0851L23.4418 26.185ZM23.2321 18.8168H23.2322V17.3168H23.2321V18.8168ZM23.2322 18.8168C23.7464 18.8168 24.39 18.8217 24.9747 18.6653C25.6043 18.4969 26.2011 18.1344 26.5871 17.4116L25.264 16.7049C25.1114 16.9907 24.9002 17.1325 24.5871 17.2162C24.2291 17.312 23.7953 17.3168 23.2322 17.3168V18.8168ZM26.5871 17.4116C26.6637 17.2682 26.6973 17.1204 26.715 17.0153C26.7344 16.9005 26.7438 16.7789 26.7478 16.6594C26.7556 16.4201 26.7425 16.1387 26.7152 15.8389C26.6605 15.2366 26.5433 14.5005 26.3822 13.7601C26.2211 13.0203 26.0118 12.2557 25.767 11.6005C25.5358 10.9816 25.2298 10.3371 24.8221 9.95538L23.797 11.0504C23.9279 11.173 24.1358 11.5204 24.3619 12.1254C24.5744 12.6943 24.7656 13.3859 24.9165 14.0791C25.0673 14.7718 25.1734 15.4456 25.2214 15.9746C25.2455 16.2404 25.2536 16.4551 25.2486 16.6103C25.246 16.688 25.2405 16.7384 25.2359 16.766C25.2295 16.8034 25.23 16.7686 25.264 16.7049L26.5871 17.4116ZM24.8221 9.95538C24.2463 9.41638 23.4227 8.76797 22.2483 8.62037L22.0613 10.1087C22.7607 10.1966 23.2954 10.5809 23.797 11.0504L24.8221 9.95538ZM22.2483 8.62037C21.5474 8.53229 20.8588 8.54776 20.3749 8.55784L20.4062 10.0575C20.9009 10.0472 21.4846 10.0362 22.0613 10.1087L22.2483 8.62037ZM20.3749 8.55784C20.314 8.55911 20.2568 8.5603 20.2023 8.56126L20.2287 10.061C20.286 10.06 20.3457 10.0588 20.4062 10.0575L20.3749 8.55784ZM20.0248 10.0575C20.0852 10.0588 20.1449 10.06 20.2023 10.061L20.2287 8.56126C20.1742 8.5603 20.117 8.55911 20.056 8.55784L20.0248 10.0575ZM18.3697 10.1087C18.9463 10.0362 19.53 10.0472 20.0248 10.0575L20.056 8.55784C19.5722 8.54776 18.8835 8.53229 18.1826 8.62037L18.3697 10.1087ZM16.634 11.0504C17.1356 10.5809 17.6703 10.1966 18.3697 10.1087L18.1826 8.62037C17.0082 8.76797 16.1847 9.41638 15.6089 9.95538L16.634 11.0504Z" fill="white"/>
</svg>
