<svg width="40" height="40" viewBox="0 0 40 40" fill="none" xmlns="http://www.w3.org/2000/svg">
<path d="M25.0283 22.6294L24.9153 25.0613C29.0978 25.8856 31.5848 27.5756 31.5848 28.8534C31.5848 30.0901 29.2109 31.8624 24.8023 32.6867C24.1994 32.8103 23.8227 33.4285 23.8979 34.0881C24.011 34.7476 24.576 35.2011 25.179 35.0774C30.605 34.0881 33.8078 31.7798 33.8078 28.8945C33.8081 25.6383 29.814 23.4949 25.0283 22.6294H25.0283Z" fill="white"/>
<path d="M17.6807 29.8016C17.2662 29.3481 16.5502 29.3481 16.0981 29.8016C15.646 30.255 15.6836 31.0382 16.0981 31.5328L17.417 32.9756C11.7272 32.4811 8.22303 30.3787 8.22303 28.8537C8.22303 27.5345 10.9736 25.7211 15.533 24.9379L15.3824 22.506C10.2954 23.3304 6 25.4738 6 28.8126C6 32.6873 11.6521 34.913 17.6055 35.4078L16.0606 37.0979C15.6461 37.5513 15.6461 38.3345 16.0606 38.8291C16.2866 39.0764 16.5505 39.2 16.852 39.2C17.1535 39.2 17.4171 39.0764 17.6434 38.8291L20.9594 35.2017C21.1854 34.9545 21.2984 34.6658 21.2984 34.336C21.2984 34.0062 21.1854 33.7178 20.9594 33.4702L17.6807 29.8016Z" fill="white"/>
<path d="M25.8196 16.5702L25.4427 13.1078C25.2167 10.9643 23.5587 9.35678 21.5616 9.35678H18.8487C16.8892 9.35678 15.2312 10.9643 14.9676 13.1078L14.5907 16.5702C14.5531 17.0236 14.8167 17.4359 15.2312 17.5595C15.7963 17.6831 16.3992 17.8068 17.0022 17.8893L17.4167 26.0095C17.4543 26.6691 17.9442 27.1636 18.5093 27.1636H21.9004C22.5033 27.1636 22.9554 26.6691 22.993 26.0095L23.4075 17.8893C24.0104 17.8068 24.6134 17.6831 25.1784 17.5595C25.6311 17.477 25.8947 17.0236 25.8195 16.5702H25.8196Z" fill="white"/>
<path d="M23.8602 3.99827C23.8602 6.20645 22.2238 7.99655 20.2052 7.99655C18.1866 7.99655 16.5502 6.20645 16.5502 3.99827C16.5502 1.7901 18.1866 0 20.2052 0C22.2238 0 23.8602 1.7901 23.8602 3.99827Z" fill="white"/>
</svg>
