<svg width="40" height="40" viewBox="0 0 40 40" fill="none" xmlns="http://www.w3.org/2000/svg">
<path d="M13.715 32.5583H8.71503C8.05199 32.5583 7.4161 32.2949 6.94726 31.8261C6.47842 31.3572 6.21503 30.7214 6.21503 30.0583V17.5583" stroke="white" stroke-width="1.5" stroke-linecap="round" stroke-linejoin="round"/>
<path d="M1.21503 15.0583L15.85 2.675C16.3013 2.29341 16.8732 2.08405 17.4642 2.08405C18.0552 2.08405 18.6271 2.29341 19.0784 2.675L31.245 12.97" stroke="white" stroke-width="1.5" stroke-linecap="round" stroke-linejoin="round"/>
<path d="M26.215 2.55832H29.215C30.3196 2.55832 31.215 3.45375 31.215 4.55832V7.55832" stroke="white" stroke-width="1.5" stroke-linecap="round" stroke-linejoin="round"/>
<path d="M29.9117 18.275L32.4801 25.0583H37.4801C37.7322 25.0484 37.9813 25.1167 38.1932 25.2537C38.4051 25.3907 38.5695 25.5898 38.664 25.8238C38.7585 26.0578 38.7784 26.3152 38.721 26.561C38.6636 26.8067 38.5317 27.0287 38.3434 27.1967L34.0101 30.2233L36.4134 35.745C36.5195 35.9979 36.5434 36.2779 36.4818 36.5451C36.4202 36.8124 36.2761 37.0536 36.0699 37.2345C35.8637 37.4155 35.6059 37.527 35.3329 37.5534C35.0598 37.5798 34.7854 37.5197 34.5484 37.3817L28.7334 34.1133L22.9217 37.3817C22.6847 37.5197 22.4103 37.5798 22.1372 37.5534C21.8642 37.527 21.6064 37.4155 21.4002 37.2345C21.194 37.0536 21.0499 36.8124 20.9883 36.5451C20.9267 36.2779 20.9506 35.9979 21.0567 35.745L23.4617 30.2233L19.1284 27.1967C18.9395 27.0294 18.8069 26.8078 18.7488 26.5623C18.6908 26.3167 18.7101 26.0592 18.8041 25.825C18.898 25.5909 19.0621 25.3915 19.2739 25.2543C19.4856 25.117 19.7346 25.0486 19.9867 25.0583H24.9867L27.5601 18.275C27.6739 18.0621 27.8434 17.8841 28.0505 17.76C28.2576 17.6359 28.4945 17.5703 28.7359 17.5703C28.9773 17.5703 29.2142 17.6359 29.4213 17.76C29.6284 17.8841 29.7979 18.0621 29.9117 18.275Z" fill="white"/>
</svg>
