<svg width="40" height="40" viewBox="0 0 40 40" fill="none" xmlns="http://www.w3.org/2000/svg">
<path fill-rule="evenodd" clip-rule="evenodd" d="M27.1716 4.58334H12.75C7.73165 4.58334 4.58331 8.14001 4.58331 13.1733V26.75C4.58331 31.7833 7.71665 35.34 12.75 35.34H27.1633C32.205 35.34 35.3383 31.7833 35.3383 26.75V13.1733C35.345 8.14001 32.21 4.58334 27.1716 4.58334V4.58334Z" stroke="white" stroke-width="1.5" stroke-linecap="round" stroke-linejoin="round"/>
<path fill-rule="evenodd" clip-rule="evenodd" d="M17.8383 14.6417C17.8384 15.0455 17.759 15.4454 17.6045 15.8185C17.4501 16.1916 17.2237 16.5307 16.9382 16.8163C16.6528 17.1019 16.3138 17.3285 15.9408 17.4831C15.5678 17.6377 15.1679 17.7174 14.7641 17.7175C14.3603 17.7176 13.9604 17.6382 13.5873 17.4838C13.2142 17.3293 12.8751 17.1029 12.5895 16.8174C12.3039 16.532 12.0773 16.1931 11.9227 15.82C11.768 15.447 11.6884 15.0472 11.6883 14.6433C11.6881 13.8278 12.0118 13.0456 12.5884 12.4687C13.1649 11.8919 13.9469 11.5677 14.7625 11.5675C15.578 11.5673 16.3602 11.891 16.9371 12.4676C17.5139 13.0441 17.8381 13.8261 17.8383 14.6417V14.6417Z" stroke="white" stroke-width="1.5" stroke-linecap="round" stroke-linejoin="round"/>
<path d="M35.345 24.9184C33.8067 23.335 30.8483 20.1367 27.6317 20.1367C24.4133 20.1367 22.5583 27.1917 19.4633 27.1917C16.3683 27.1917 13.5567 24.0017 11.0767 26.0467C8.59667 28.09 6.25 32.2684 6.25 32.2684" stroke="white" stroke-width="1.5" stroke-linecap="round" stroke-linejoin="round"/>
</svg>
