<svg width="40" height="40" viewBox="0 0 40 40" fill="none" xmlns="http://www.w3.org/2000/svg">
<path fill-rule="evenodd" clip-rule="evenodd" d="M27.1716 4.58334H12.75C7.73165 4.58334 4.58331 8.14001 4.58331 13.1733V26.75C4.58331 31.7833 7.71665 35.34 12.75 35.34H27.1633C32.205 35.34 35.3383 31.7833 35.3383 26.75V13.1733C35.345 8.14001 32.21 4.58334 27.1716 4.58334V4.58334Z" stroke="white" stroke-width="1.5" stroke-linecap="round" stroke-linejoin="round"/>
<path fill-rule="evenodd" clip-rule="evenodd" d="M17.8383 14.6417C17.8384 15.0455 17.759 15.4454 17.6045 15.8185C17.4501 16.1916 17.2237 16.5307 16.9382 16.8163C16.6528 17.1019 16.3138 17.3285 15.9408 17.4831C15.5678 17.6377 15.1679 17.7174 14.7641 17.7175C14.3603 17.7176 13.9604 17.6382 13.5873 17.4838C13.2142 17.3293 12.8751 17.1029 12.5895 16.8174C12.3039 16.532 12.0773 16.1931 11.9227 15.82C11.768 15.447 11.6884 15.0472 11.6883 14.6433C11.6881 13.8278 12.0118 13.0456 12.5884 12.4687C13.1649 11.8919 13.9469 11.5677 14.7625 11.5675C15.578 11.5673 16.3602 11.891 16.9371 12.4676C17.5139 13.0441 17.8381 13.8261 17.8383 14.6417Z" fill="white" stroke="white" stroke-width="1.5" stroke-linecap="round" stroke-linejoin="round"/>
<path fill-rule="evenodd" clip-rule="evenodd" d="M24.9079 20.7034C25.6376 19.9882 26.5371 19.3867 27.6316 19.3867C29.4804 19.3867 31.1846 20.2996 32.5668 21.3331C33.8423 22.2869 34.9301 23.4113 35.6856 24.1921C35.7541 24.2629 35.8199 24.3309 35.8829 24.3957C36.0292 24.5463 36.1056 24.7513 36.0938 24.9608C36.0342 26.0101 35.8427 27.6535 35.4571 29.2008C35.2642 29.9745 35.0177 30.7451 34.704 31.4131C34.3961 32.0688 33.9922 32.6933 33.45 33.1C32.8555 33.5459 32.0173 33.9201 31.0924 34.2337C30.1549 34.5517 29.075 34.8249 27.9595 35.048C25.7327 35.4933 23.3078 35.75 21.5 35.75C18.6736 35.75 12.2836 35.4151 9.45591 35.2487C9.31957 35.2407 9.188 35.1956 9.07541 35.1183L5.82541 32.8866C5.50548 32.6669 5.40599 32.2395 5.59603 31.9011L6.24996 32.2684C5.59603 31.9011 5.59603 31.9011 5.59603 31.9011L5.59845 31.8968L5.60426 31.8865L5.62592 31.8485C5.64474 31.8156 5.67224 31.7679 5.70788 31.7068C5.77916 31.5847 5.88308 31.4091 6.01531 31.1926C6.27955 30.76 6.658 30.1618 7.11591 29.4979C8.02175 28.1846 9.27634 26.5582 10.5997 25.4679C12.1826 24.1628 13.8773 24.5983 15.3101 25.1529C15.6187 25.2723 15.9311 25.4039 16.2351 25.5319C16.2883 25.5543 16.3413 25.5766 16.3939 25.5987C16.7524 25.7493 17.1016 25.8934 17.4513 26.02C18.1531 26.2742 18.815 26.4417 19.4633 26.4417C19.9375 26.4417 20.4512 26.172 21.0616 25.5598C21.6636 24.956 22.2441 24.1388 22.877 23.2479L22.8898 23.2298C23.5071 22.3608 24.1763 21.4204 24.9079 20.7034Z" fill="white"/>
</svg>
