<svg width="40" height="40" viewBox="0 0 40 40" fill="none" xmlns="http://www.w3.org/2000/svg">
<path d="M10.8333 12.5C10.8332 11.7116 10.6094 10.9395 10.1879 10.2733C9.76642 9.60702 9.16458 9.07402 8.45229 8.73617C7.73999 8.39833 6.94646 8.26948 6.16386 8.36462C5.38127 8.45975 4.64172 8.77496 4.03111 9.27362C3.4205 9.77228 2.96389 10.4339 2.71431 11.1818C2.46473 11.9296 2.43243 12.7328 2.62115 13.4983C2.80987 14.2637 3.21187 14.9599 3.78046 15.506C4.34905 16.0521 5.0609 16.4256 5.83333 16.5833V21.7333C6.10917 21.6913 6.38766 21.669 6.66667 21.6667C6.94568 21.669 7.22417 21.6913 7.5 21.7333V16.5833C8.39542 16.3941 9.20333 15.9145 9.79833 15.2192L14.5658 17.9008C14.768 17.3798 15.0442 16.8906 15.3858 16.4483L10.6158 13.7658C10.7543 13.3579 10.8277 12.9307 10.8333 12.5Z" fill="white"/>
<path d="M34.1667 23.4167V18.2667C33.6147 18.3556 33.052 18.3556 32.5 18.2667V23.4167C31.6044 23.6056 30.7964 24.0852 30.2017 24.7808L25.435 22.1C25.2326 22.6207 24.9564 23.1095 24.615 23.5517L29.3842 26.2342C29.2457 26.6421 29.1723 27.0693 29.1667 27.5C29.1668 28.2884 29.3906 29.0605 29.8121 29.7267C30.2336 30.393 30.8354 30.926 31.5477 31.2638C32.26 31.6017 33.0535 31.7305 33.8361 31.6354C34.6187 31.5402 35.3583 31.225 35.9689 30.7264C36.5795 30.2277 37.0361 29.566 37.2857 28.8182C37.5353 28.0704 37.5676 27.2671 37.3788 26.5017C37.1901 25.7363 36.7881 25.0401 36.2195 24.494C35.6509 23.9479 34.9391 23.5743 34.1667 23.4167Z" fill="white"/>
<path d="M28.1108 30.7141C27.9734 30.4713 27.8533 30.219 27.7517 29.9591L23.325 32.515C22.7185 31.6947 21.8318 31.1259 20.8333 30.9166V25.7658C20.2813 25.8547 19.7187 25.8547 19.1667 25.7658V30.9166C18.3942 31.0743 17.6824 31.4479 17.1138 31.994C16.5452 32.5401 16.1432 33.2363 15.9545 34.0017C15.7658 34.7671 15.7981 35.5704 16.0477 36.3182C16.2972 37.066 16.7538 37.7277 17.3644 38.2263C17.9751 38.725 18.7146 39.0402 19.4972 39.1353C20.2798 39.2305 21.0733 39.1016 21.7856 38.7638C22.4979 38.4259 23.0998 37.8929 23.5212 37.2267C23.9427 36.5605 24.1665 35.7883 24.1667 35C24.1634 34.6716 24.1209 34.3449 24.04 34.0266L28.5833 31.4025C28.4096 31.1846 28.2517 30.9546 28.1108 30.7141Z" fill="white"/>
<path d="M11.89 9.28582C12.0275 9.52865 12.1475 9.78095 12.2492 10.0408L16.6767 7.48499C17.2826 8.30508 18.1687 8.87391 19.1667 9.08332V14.235C19.7187 14.1461 20.2813 14.1461 20.8333 14.235V9.08332C21.6058 8.92565 22.3176 8.55207 22.8862 8.00599C23.4548 7.4599 23.8568 6.76371 24.0455 5.99827C24.2342 5.23283 24.2019 4.42956 23.9523 3.68175C23.7028 2.93394 23.2462 2.27228 22.6355 1.77362C22.0249 1.27496 21.2854 0.959752 20.5028 0.864619C19.7202 0.769485 18.9267 0.898325 18.2144 1.23617C17.5021 1.57402 16.9002 2.10702 16.4788 2.77326C16.0573 3.43949 15.8335 4.21163 15.8333 4.99999C15.8366 5.32832 15.8791 5.65508 15.96 5.97332L11.4167 8.59749C11.5909 8.81515 11.7491 9.0452 11.89 9.28582Z" fill="white"/>
<path d="M20.0008 24.1666C22.302 24.1666 24.1675 22.3012 24.1675 20C24.1675 17.6988 22.302 15.8333 20.0008 15.8333C17.6996 15.8333 15.8342 17.6988 15.8342 20C15.8342 22.3012 17.6996 24.1666 20.0008 24.1666Z" fill="white"/>
<path d="M25.4358 17.8992L30.2025 15.2183C30.7523 15.8514 31.4807 16.3035 32.292 16.5152C33.1033 16.727 33.9597 16.6885 34.7487 16.4048C35.5378 16.1212 36.2227 15.6056 36.7135 14.9258C37.2043 14.246 37.4782 13.4337 37.4991 12.5954C37.5201 11.7572 37.2871 10.9322 36.8308 10.2288C36.3745 9.5253 35.7162 8.97621 34.9423 8.65354C34.1684 8.33087 33.315 8.24971 32.4941 8.42069C31.6732 8.59168 30.9232 9.00683 30.3425 9.61167L25.5833 6.86417C25.4817 7.12403 25.3617 7.37634 25.2242 7.61917C25.0827 7.85963 24.9243 8.08966 24.75 8.3075L29.4508 11.0217C29.0971 11.8979 29.0737 12.8728 29.385 13.765L24.6158 16.4475C24.9573 16.8896 25.2334 17.3785 25.4358 17.8992Z" fill="white"/>
<path d="M14.5658 22.1L9.79833 24.7816C9.24852 24.1486 8.52017 23.6965 7.70885 23.4848C6.89754 23.273 6.04116 23.3115 5.2521 23.5951C4.46304 23.8788 3.77816 24.3943 3.28733 25.0742C2.7965 25.754 2.52265 26.5663 2.50172 27.4045C2.48079 28.2428 2.71376 29.0677 3.17005 29.7712C3.62633 30.4747 4.28463 31.0238 5.05855 31.3464C5.83247 31.6691 6.68586 31.7503 7.50673 31.5793C8.32761 31.4083 9.07761 30.9931 9.65833 30.3883L14.4183 33.1383C14.5194 32.8783 14.6391 32.626 14.7767 32.3833C14.9184 32.1428 15.0771 31.9128 15.2517 31.695L10.55 28.9775C10.9036 28.1015 10.927 27.1269 10.6158 26.235L15.3858 23.5525C15.0442 23.1102 14.768 22.621 14.5658 22.1Z" fill="white"/>
</svg>
