<svg width="40" height="40" viewBox="0 0 40 40" fill="none" xmlns="http://www.w3.org/2000/svg">
<path d="M6.66668 15.8333C8.50763 15.8333 10 14.3409 10 12.5C10 10.659 8.50763 9.16666 6.66668 9.16666C4.82573 9.16666 3.33334 10.659 3.33334 12.5C3.33334 14.3409 4.82573 15.8333 6.66668 15.8333Z" stroke="white" stroke-width="1.5" stroke-linecap="round" stroke-linejoin="round"/>
<path d="M33.3342 15.8333C35.1751 15.8333 36.6675 14.3409 36.6675 12.5C36.6675 10.659 35.1751 9.16666 33.3342 9.16666C31.4932 9.16666 30.0009 10.659 30.0009 12.5C30.0009 14.3409 31.4932 15.8333 33.3342 15.8333Z" stroke="white" stroke-width="1.5" stroke-linecap="round" stroke-linejoin="round"/>
<path d="M20.0008 38.3333C21.8418 38.3333 23.3342 36.8409 23.3342 35C23.3342 33.159 21.8418 31.6667 20.0008 31.6667C18.1599 31.6667 16.6675 33.159 16.6675 35C16.6675 36.8409 18.1599 38.3333 20.0008 38.3333Z" stroke="white" stroke-width="1.5" stroke-linecap="round" stroke-linejoin="round"/>
<path d="M20.0009 23.3333V31.6666" stroke="white" stroke-width="1.5" stroke-linecap="round" stroke-linejoin="round"/>
<path d="M26.8025 31.1742L22.905 33.3667" stroke="white" stroke-width="1.5" stroke-linecap="round" stroke-linejoin="round"/>
<path d="M6.66669 15.8333V20" stroke="white" stroke-width="1.5" stroke-linecap="round" stroke-linejoin="round"/>
<path d="M17.0975 18.3675L9.56918 14.1325" stroke="white" stroke-width="1.5" stroke-linecap="round" stroke-linejoin="round"/>
<path d="M22.9059 18.3658L30.4292 14.1342" stroke="white" stroke-width="1.5" stroke-linecap="round" stroke-linejoin="round"/>
<path d="M30.4308 10.8667L26.5325 8.67416" stroke="white" stroke-width="1.5" stroke-linecap="round" stroke-linejoin="round"/>
<path d="M6.66668 30.8333C8.50763 30.8333 10 29.3409 10 27.5C10 25.659 8.50763 24.1667 6.66668 24.1667C4.82573 24.1667 3.33334 25.659 3.33334 27.5C3.33334 29.3409 4.82573 30.8333 6.66668 30.8333Z" stroke="white" stroke-width="1.5" stroke-linecap="round" stroke-linejoin="round"/>
<path d="M33.3342 30.8333C35.1751 30.8333 36.6675 29.3409 36.6675 27.5C36.6675 25.659 35.1751 24.1667 33.3342 24.1667C31.4932 24.1667 30.0009 25.659 30.0009 27.5C30.0009 29.3409 31.4932 30.8333 33.3342 30.8333Z" stroke="white" stroke-width="1.5" stroke-linecap="round" stroke-linejoin="round"/>
<path d="M20.0008 23.3333C21.8418 23.3333 23.3342 21.8409 23.3342 20C23.3342 18.159 21.8418 16.6667 20.0008 16.6667C18.1599 16.6667 16.6675 18.159 16.6675 20C16.6675 21.8409 18.1599 23.3333 20.0008 23.3333Z" stroke="white" stroke-width="1.5" stroke-linecap="round" stroke-linejoin="round"/>
<path d="M20.0009 8.33331V16.6666" stroke="white" stroke-width="1.5" stroke-linecap="round" stroke-linejoin="round"/>
<path d="M20.0008 8.33332C21.8418 8.33332 23.3342 6.84094 23.3342 4.99999C23.3342 3.15904 21.8418 1.66666 20.0008 1.66666C18.1599 1.66666 16.6675 3.15904 16.6675 4.99999C16.6675 6.84094 18.1599 8.33332 20.0008 8.33332Z" stroke="white" stroke-width="1.5" stroke-linecap="round" stroke-linejoin="round"/>
<path d="M13.1983 8.82583L17.0958 6.63333" stroke="white" stroke-width="1.5" stroke-linecap="round" stroke-linejoin="round"/>
<path d="M13.4692 31.3258L9.57001 29.1333" stroke="white" stroke-width="1.5" stroke-linecap="round" stroke-linejoin="round"/>
<path d="M33.3342 20V24.1667" stroke="white" stroke-width="1.5" stroke-linecap="round" stroke-linejoin="round"/>
<path d="M17.0975 21.6325L9.56918 25.8675" stroke="white" stroke-width="1.5" stroke-linecap="round" stroke-linejoin="round"/>
<path d="M22.9059 21.6342L30.4292 25.8658" stroke="white" stroke-width="1.5" stroke-linecap="round" stroke-linejoin="round"/>
</svg>
